<svg fill="none" height="601" viewBox="0 0 601 601" width="601" xmlns="http://www.w3.org/2000/svg" xmlns:xlink="http://www.w3.org/1999/xlink"><linearGradient id="a" gradientUnits="userSpaceOnUse" x1="223.62" x2="446.307" y1="284.399" y2="358.232"><stop offset="0" stop-color="#025e73"/><stop offset="1" stop-color="#10345a"/></linearGradient><linearGradient id="b" gradientUnits="userSpaceOnUse" x1="337.032" x2="337.032" y1="56.7397" y2="501.012"><stop offset="0" stop-color="#fff"/><stop offset="1" stop-color="#e3fff4"/></linearGradient><linearGradient id="c" gradientUnits="userSpaceOnUse" x1="224.638" x2="434.218" y1="278.969" y2="348.456"><stop offset="0" stop-color="#148a89"/><stop offset="1" stop-color="#19538f"/></linearGradient><linearGradient id="d" gradientUnits="userSpaceOnUse" x1="340.838" x2="340.838" y1="242.609" y2="314.263"><stop offset="0" stop-color="#1dd790"/><stop offset="1" stop-color="#19ab73"/></linearGradient><linearGradient id="e" gradientUnits="userSpaceOnUse" x1="73.5" x2="185" y1="159" y2="139"><stop offset="0" stop-color="#16497e"/><stop offset="1" stop-color="#025e73"/></linearGradient><linearGradient id="f" gradientUnits="userSpaceOnUse" x1="74.0915" x2="84.5119" y1="153.444" y2="269.288"><stop offset="0" stop-color="#16497e"/><stop offset="1" stop-color="#072341"/></linearGradient><linearGradient id="g" gradientUnits="userSpaceOnUse" x1="217.18" x2="57.9395" y1="163.763" y2="245.012"><stop offset="0" stop-color="#148a89"/><stop offset="1" stop-color="#16497e"/></linearGradient><linearGradient id="h"><stop offset="0" stop-color="#025e73"/><stop offset="1" stop-color="#122e4b"/></linearGradient><linearGradient id="i" gradientUnits="userSpaceOnUse" x1="91.582" x2="94.234" xlink:href="#h" y1="127.135" y2="156.618"/><linearGradient id="j" gradientUnits="userSpaceOnUse" x1="159.017" x2="161.616" xlink:href="#h" y1="117.421" y2="146.319"/><linearGradient id="k" gradientUnits="userSpaceOnUse" x1="119.516" x2="125.678" y1="57.2133" y2="125.712"><stop offset="0" stop-color="#16497e"/><stop offset="1" stop-color="#0b2a4a"/></linearGradient><linearGradient id="l" gradientUnits="userSpaceOnUse" x1="190.866" x2="107.872" y1="188.806" y2="213.683"><stop offset="0" stop-color="#16497e"/><stop offset="1"/></linearGradient><clipPath id="m"><path d="m0 0h121.943v208.907h-121.943z" transform="matrix(.99597873 -.08958999 .08958999 .99597873 56.4873 62.8826)"/></clipPath><path d="m428 145.992c32.4 29.4 49.5 74.7 62.4 124.2s21.3 103.201 4.5 151.201c-17.1 47.699-59.7 89.699-105.6 93.899-45.6 3.901-94.8-30-144.3-52.5-49.5-22.2-99.9-33.3-135.3-66.3-35.4004-33-56.4004-88.2-48.6004-139.5s44.1004-98.7 88.8004-126c44.7-27 97.8-33.8995 147.9-30.599 50.4 3 97.8 16.499 130.2 45.599z" fill="#e1edfa"/><path clip-rule="evenodd" d="m295.144 78.4563c4.046-12.1972 19.107-25.1381 32.557-25.1381l175.475-.3682c24.327 0 39.455 14.3215 30.677 41.2167l-129.769 391.2513c-4.046 12.197-10.33 30.24-39.798 30.24h-176.244c-26.56 0-32.896-24.902-28.851-37.1z" fill="url(#a)" fill-rule="evenodd"/><path clip-rule="evenodd" d="m291.354 78.8246c4.046-12.1972 18.229-22.0849 31.68-22.0849h175.352c13.451 0 21.076 9.8877 17.03 22.0849l-132.706 400.1024c-4.045 12.197-18.228 22.085-31.679 22.085h-175.353c-13.45 0-21.075-9.888-17.029-22.085z" fill="url(#b)" fill-rule="evenodd"/><path d="m354.948 505.09h-175.352c-7.958 0-14.761-3.119-18.663-8.557-3.742-5.215-4.53-11.925-2.218-18.895l132.705-400.1024c2.232-6.7292 7.151-13.007 13.85-17.6774 6.656-4.6403 14.356-7.1961 21.681-7.1961h175.352c7.958 0 14.761 3.1189 18.663 8.5568 3.742 5.2143 4.529 11.9248 2.218 18.8945l-132.705 400.1026c-2.233 6.729-7.151 13.007-13.85 17.677-6.657 4.641-14.356 7.196-21.681 7.196zm-27.997-444.2728c-11.616 0-24.36 8.8365-27.829 19.2962l-132.705 400.1026c-1.465 4.416-1.074 8.517 1.101 11.548 2.393 3.334 6.682 5.17 12.078 5.17h175.352c11.616 0 24.36-8.836 27.829-19.296l132.705-400.1024c1.464-4.416 1.073-8.5172-1.101-11.5476-2.393-3.3343-6.683-5.1708-12.078-5.1708z" fill="url(#c)"/><path d="m364.338 78.6356c1.54-4.6403 6.785-8.4022 11.717-8.4022h64.134c4.932 0 7.682 3.7615 6.143 8.4022-1.539 4.6403-6.785 8.4022-11.717 8.4022h-64.134c-4.931 0-7.682-3.7615-6.143-8.4022z" fill="#000"/><path d="m340.838 242.609c-7.081 0-14.003 2.101-19.891 6.038-5.887 3.937-10.476 9.532-13.186 16.079-2.709 6.546-3.418 13.75-2.037 20.699 1.381 6.95 4.791 13.334 9.798 18.345 5.007 5.01 11.386 8.422 18.331 9.805 6.945 1.382 14.144.673 20.686-2.039 6.541-2.712 12.133-7.304 16.067-13.196 3.934-5.891 6.034-12.818 6.034-19.904-.01-9.499-3.786-18.606-10.498-25.323-6.712-6.716-15.812-10.494-25.304-10.504zm15.718 29.509-19.278 19.291c-.255.257-.559.46-.893.599-.335.138-.693.21-1.055.21s-.72-.072-1.055-.21c-.334-.139-.638-.342-.894-.599l-8.261-8.267c-.517-.517-.808-1.219-.808-1.95s.291-1.433.808-1.95c.516-.517 1.217-.808 1.948-.808s1.432.291 1.948.808l6.314 6.321 17.329-17.345c.256-.256.56-.459.894-.597.335-.139.693-.21 1.055-.21s.72.071 1.054.21c.335.138.638.341.894.597s.459.56.598.895c.138.334.209.693.209 1.055s-.071.721-.209 1.055c-.139.335-.342.639-.598.895z" fill="url(#d)"/><g clip-path="url(#m)"><path d="m170.593 137.587 13.868 7.434-101.5614 16.83-9.4483-5.322c-.9683-.578-9.7223 1.802-6.5359-2.051 1.0787-1.303 2.6305-2.127 4.257-2.379l96.9426-15.014c.876-.136 1.749.041 2.477.501z" fill="url(#e)"/><path d="m90.8579 268.597-14.6783-8.369c-1.3225-.805-2.157-2.201-2.2847-3.823l-7.8351-99.298c-.2367-2.998 2.2719-3.99 4.7172-2.388l13.6047 7.972 7.588 105.135c.0472.595-.6302 1.064-1.112.77z" fill="url(#f)"/><path d="m190.053 248.816-95.1819 20.327c-2.6881.574-5.0441-1.137-5.2562-3.822l-7.8765-99.828c-.2121-2.686 1.8098-5.213 4.5093-5.645l95.5813-15.269c2.449-.391 4.593 1.359 4.795 3.909l7.477 94.77c.202 2.55-1.608 5.038-4.047 5.559z" fill="url(#g)"/><path d="m101.463 126.246-19.4166 2.807 2.062 25.742c.0407.507.3452.955.8074 1.165 1.7853.811 6.3021 1.154 10.4872.491 4.608-.73 7.375-2.455 8.056-3.755.114-.217.146-.468.125-.713l-2.12-25.736z" fill="url(#i)"/><path d="m101.463 126.246c.106 1.343-2.5958 2.983-7.9432 3.763-5.3752.784-11.3669.4-11.4734-.956-.1072-1.356 4.1853-3.083 9.561-3.853 5.3479-.767 9.7496-.297 9.8556 1.046z" fill="#1dd790"/><path d="m168.263 116.59-18.166 2.626 2.016 25.077c.027.328.155.647.395.872 1.082 1.02 4.31 1.953 10.903.888 4.297-.693 6.261-2.606 6.793-3.892.085-.206.117-.426.1-.649z" fill="url(#j)"/><path d="m168.263 116.59c.103 1.3-1.846 3.218-6.849 3.947-5.029.733-11.214-.009-11.317-1.321-.104-1.312 2.865-2.917 7.895-3.638 5.004-.717 10.168-.287 10.271 1.012z" fill="#1dd790"/><path d="m155.841 101.032c-2.782.378-5.226-1.6364-5.452-4.5001-1.151-14.5975-13.702-25.0377-28.219-23.2971-14.728 1.7659-25.8664 15.3622-24.6844 30.3462l1.8133 22.978s-1.0091 1.366-7.0208 2.121c-6.5411.82-7.0659-.085-7.0659-.085l-2.0129-25.51c-1.8046-22.8664 15.2755-43.4775 37.6967-45.9862 21.937-2.4545 40.782 13.4123 42.516 35.3918l.18 2.2823c.224 2.8448-1.829 5.4551-4.594 5.8301l-3.158.429z" fill="url(#k)"/><path d="m153.637 190.073c-.665-8.435-8.007-14.099-16.463-12.64-8.527 1.471-14.945 9.616-14.269 18.18.398 5.041 3.167 9.07 7.118 11.203 1.289.695 2.072 2.063 1.911 3.523l-1.958 17.795c-.259 2.358 1.841 4.29 4.162 3.828l15.288-3.047c2-.398 3.237-2.421 2.685-4.39l-4.855-17.306c-.349-1.245.01-2.584.945-3.474 3.671-3.495 5.843-8.52 5.436-13.672z" fill="url(#l)"/></g></svg>